<svg width="36" height="33" viewBox="0 0 36 33" fill="none" xmlns="http://www.w3.org/2000/svg">
<path d="M18.8847 1.71254C18.7602 1.32927 18.403 1.06977 18 1.06977C17.597 1.06977 17.2398 1.32927 17.1153 1.71254L13.7319 12.1255H2.7831C2.38009 12.1255 2.02293 12.385 1.89839 12.7683C1.77386 13.1515 1.91028 13.5714 2.23632 13.8083L11.0941 20.2439L7.71073 30.6568C7.5862 31.0401 7.72262 31.46 8.04866 31.6968C8.37469 31.9337 8.81618 31.9337 9.14221 31.6968L18 25.2613L26.8578 31.6968C27.1838 31.9337 27.6253 31.9337 27.9513 31.6968C28.2774 31.46 28.4138 31.0401 28.2893 30.6568L24.9059 20.2439L33.7637 13.8083C34.0897 13.5714 34.2261 13.1515 34.1016 12.7683C33.9771 12.385 33.6199 12.1255 33.2169 12.1255H22.2681L18.8847 1.71254Z" stroke="#0245A3" stroke-width="1.86047" stroke-linecap="round" stroke-linejoin="round"/>
</svg>
